# xmcd CD database file
#
# Track frame offsets:
#	150
#	42655
#	99213
#	156312
#	215254
#
# Disc length: 3840 seconds
#
# Revision: 0
# Processed by: cddbd v1.5.2PL0 Copyright (c) Steve Scherf et al.
# Submitted via: CDex 1.51
#
DISCID=3c0efe05
DTITLE=Mulgrew Miller - Live At The Kennedy Center Volume Two
DYEAR=2007
DGENRE=Jazz
TTITLE0=Song For Darnell
TTITLE1=Grew's Tune
TTITLE2=Farewell To Dogma
TTITLE3=Old Folks
TTITLE4=Eleventh Hour
EXTD=YEAR: 2007
EXTT0=
EXTT1=
EXTT2=
EXTT3=
EXTT4=
PLAYORDER=
